<svg width="36" height="36" viewBox="0 0 24 24" fill="none" xmlns="http://www.w3.org/2000/svg">
<path d="M19.485 20.5131V2.5131C19.4844 2.33086 19.4341 2.15222 19.3396 1.99642C19.245 1.84062 19.1098 1.71356 18.9484 1.6289C18.787 1.54425 18.6056 1.50521 18.4237 1.516C18.2418 1.52678 18.0662 1.58697 17.916 1.6901L4.91597 10.6901C4.37697 11.0631 4.37697 11.9611 4.91597 12.3351L17.916 21.3351C18.0659 21.4393 18.2415 21.5004 18.4238 21.5117C18.606 21.5231 18.7878 21.4843 18.9496 21.3996C19.1113 21.3149 19.2467 21.1874 19.3411 21.0311C19.4355 20.8748 19.4853 20.6957 19.485 20.5131Z" fill="black"/>
</svg>
