<svg width="24" height="24" viewBox="0 0 24 24" fill="none" xmlns="http://www.w3.org/2000/svg">
<path d="M16.9999 12C18.0872 11.9998 19.1448 11.6452 20.0125 10.9899C20.8802 10.3345 21.5105 9.41425 21.8081 8.36843C22.1057 7.32262 22.0543 6.20831 21.6616 5.19436C21.2689 4.18041 20.5565 3.32209 19.6321 2.74949C18.7078 2.17688 17.622 1.9212 16.5392 2.02119C15.4565 2.12118 14.4359 2.57139 13.6321 3.30358C12.8282 4.03578 12.285 5.01006 12.0846 6.07878C11.8843 7.14749 12.0378 8.25238 12.5219 9.22601C12.6134 9.40279 12.6372 9.6069 12.5889 9.80001L12.2909 10.913C12.2614 11.0232 12.2614 11.1392 12.2909 11.2494C12.3205 11.3596 12.3785 11.4601 12.4591 11.5407C12.5398 11.6214 12.6403 11.6794 12.7505 11.709C12.8607 11.7385 12.9767 11.7385 13.0869 11.709L14.1999 11.411C14.393 11.3627 14.5971 11.3865 14.7739 11.478C15.4653 11.8223 16.2274 12.001 16.9999 12Z" stroke="white" stroke-width="1.5"/>
<path d="M14.556 15.5473L15.1 16.0643L14.556 15.5483V15.5473ZM18.002 21.2543L17.457 20.7373L18.001 21.2543H18.002ZM16.676 21.9643L16.75 22.7093L16.676 21.9633V21.9643ZM14.645 16.5433L15.1 16.0643L14.012 15.0303L13.557 15.5113L14.645 16.5433ZM16.599 15.8613L18.509 16.9623L19.257 15.6613L17.347 14.5613L16.599 15.8613ZM18.878 19.2413L17.458 20.7363L18.545 21.7703L19.965 20.2753L18.878 19.2413ZM16.603 21.2163C15.168 21.3573 11.423 21.2373 7.359 16.9593L6.272 17.9913C10.701 22.6543 14.926 22.8903 16.75 22.7093L16.603 21.2163ZM7.359 16.9593C3.483 12.8783 2.833 9.43527 2.752 7.92527L1.254 8.00627C1.354 9.85627 2.138 13.6393 6.272 17.9913L7.359 16.9593ZM8.735 10.3213L9.021 10.0193L7.934 8.98627L7.647 9.28827L8.735 10.3213ZM9.247 6.25927L7.986 4.47727L6.761 5.34327L8.021 7.12627L9.247 6.26027V6.25927ZM3.717 4.09127L2.149 5.74527L3.237 6.77827L4.807 5.12527L3.719 4.09227L3.717 4.09127ZM8.191 9.80427C8.01102 9.63083 7.82935 9.45915 7.646 9.28927L7.644 9.29127L7.641 9.29427C7.62344 9.31282 7.60676 9.33217 7.591 9.35227C7.49298 9.48202 7.41541 9.62603 7.361 9.77927C7.263 10.0543 7.211 10.4183 7.277 10.8723C7.407 11.7643 7.992 12.9633 9.519 14.5723L10.607 13.5383C9.179 12.0353 8.827 11.1103 8.761 10.6543C8.729 10.4343 8.761 10.3193 8.774 10.2823L8.782 10.2633C8.77152 10.2803 8.7591 10.2961 8.745 10.3103L8.74 10.3153C8.73904 10.3163 8.73804 10.3173 8.737 10.3183L8.736 10.3193C8.736 10.3193 8.734 10.3213 8.191 9.80427ZM9.519 14.5723C11.042 16.1763 12.192 16.8053 13.069 16.9483C13.52 17.0213 13.885 16.9623 14.161 16.8533C14.3139 16.7932 14.4561 16.7088 14.582 16.6033C14.5943 16.5923 14.6063 16.5809 14.618 16.5693L14.632 16.5553C14.6354 16.552 14.6387 16.5487 14.642 16.5453C14.642 16.5433 14.645 16.5433 14.101 16.0263C13.557 15.5103 13.558 15.5093 13.558 15.5083L13.56 15.5073L13.562 15.5043C13.5637 15.5026 13.5654 15.501 13.567 15.4993L13.577 15.4893C13.5887 15.4779 13.6011 15.4673 13.614 15.4573C13.624 15.4513 13.623 15.4533 13.61 15.4583C13.59 15.4663 13.5 15.4983 13.31 15.4673C12.908 15.4013 12.04 15.0473 10.607 13.5383L9.519 14.5723ZM7.986 4.47727C6.972 3.04327 4.944 2.80027 3.718 4.09227L4.804 5.12527C5.327 4.57527 6.249 4.61827 6.761 5.34327L7.986 4.47727ZM2.752 7.92527C2.73 7.52527 2.905 7.12627 3.237 6.77827L2.149 5.74527C1.613 6.30927 1.205 7.09227 1.254 8.00627L2.752 7.92527ZM17.457 20.7373C17.178 21.0313 16.887 21.1883 16.603 21.2163L16.75 22.7093C17.497 22.6363 18.102 22.2373 18.545 21.7703L17.457 20.7383V20.7373ZM9.021 10.0203C9.99 9.00027 10.057 7.40727 9.247 6.26027L8.022 7.12627C8.444 7.72327 8.379 8.51827 7.934 8.98627L9.021 10.0203ZM18.509 16.9623C19.33 17.4353 19.491 18.5973 18.878 19.2423L19.965 20.2753C21.27 18.9013 20.89 16.6023 19.258 15.6623L18.509 16.9623ZM15.1 16.0643C15.485 15.6583 16.086 15.5673 16.599 15.8623L17.347 14.5623C16.248 13.9303 14.887 14.1123 14.012 15.0323L15.1 16.0643Z" fill="white"/>
</svg>
