<svg width="30" height="31" viewBox="0 0 30 31" fill="none" xmlns="http://www.w3.org/2000/svg">
<g clip-path="url(#clip0_215_264)">
<path d="M14.6594 23.0507C13.9731 22.9226 13.4426 22.4264 13.0038 22.0165C12.7718 21.8008 12.4544 21.504 12.2907 21.4608C12.2694 21.4545 12.23 21.4483 12.1613 21.4483C11.9457 21.4483 11.6413 21.5183 11.3469 21.5852C10.96 21.6739 10.5589 21.7656 10.1494 21.7656C9.76332 21.7656 9.42248 21.6807 9.13186 21.5132C9.04016 21.4596 8.95514 21.4001 8.87814 21.3369L5.91699 27.732L9.5975 27.6219L11.8938 30.5006L15.0007 23.789L15.3432 23.0508C15.2331 23.0726 15.1188 23.0838 15.0007 23.0838C14.883 23.0838 14.7687 23.0725 14.6594 23.0507Z" fill="black"/>
<path d="M20.8708 21.5107C20.5802 21.6795 20.2377 21.7644 19.8533 21.7644C19.8533 21.7644 19.8533 21.7644 19.852 21.7644C19.4421 21.7644 19.0426 21.6727 18.6558 21.5839C18.3614 21.517 18.057 21.4471 17.8397 21.4471C17.7726 21.4471 17.732 21.4533 17.7103 21.4596C17.547 21.5027 17.2296 21.7996 16.9988 22.0153C16.8896 22.117 16.7753 22.2238 16.6551 22.3288L15.4902 24.8445L18.1077 30.4993L20.4052 27.6206L24.0858 27.7307L21.1233 21.334C21.0458 21.3989 20.9621 21.4571 20.8708 21.5107Z" fill="black"/>
<path d="M15.001 5.25781C11.6379 5.25781 8.91113 7.98453 8.91113 11.3477C8.91113 14.7109 11.6378 17.4376 15.001 17.4376C18.3641 17.4376 21.0908 14.7109 21.0908 11.3477C21.0908 7.98453 18.3641 5.25781 15.001 5.25781Z" fill="black"/>
<path d="M24.2561 13.8279C24.4818 12.9841 25.8485 12.2622 25.8485 11.3473C25.8485 10.4329 24.4818 9.711 24.2561 8.8673C24.0229 7.99426 24.8385 6.68615 24.3968 5.92244C23.9479 5.14736 22.4037 5.20309 21.7744 4.57373C21.145 3.94561 21.2011 2.40055 20.4257 1.95131C19.6623 1.50998 18.3538 2.32561 17.4812 2.0924C16.6387 1.86758 15.9156 0.5 15.0007 0.5C14.0874 0.5 13.3643 1.86758 12.5206 2.0924C11.6488 2.32561 10.3407 1.50998 9.57576 1.95131C8.80197 2.40061 8.85635 3.94561 8.22828 4.57373C7.59939 5.20309 6.05387 5.14736 5.60586 5.92244C5.1633 6.68615 5.98016 7.99426 5.74695 8.8673C5.52084 9.711 4.15332 10.4329 4.15332 11.3473C4.15332 12.2622 5.52084 12.9841 5.74695 13.8279C5.98016 14.7008 5.1633 16.0089 5.60586 16.7727C6.05387 17.5478 7.59939 17.4917 8.22828 18.121C8.51762 18.4103 8.66129 18.8926 8.80818 19.3721C8.93258 19.7807 9.05943 20.1877 9.27764 20.4733C9.36137 20.5839 9.45934 20.6764 9.57576 20.7434C10.3395 21.1852 11.6488 20.3695 12.5206 20.6028C13.0599 20.7463 13.5494 21.3552 14.0707 21.7777C14.3651 22.0159 14.6712 22.1951 15.0007 22.1951C15.3306 22.1951 15.6363 22.0159 15.9319 21.7777C16.4435 21.364 16.9242 20.7702 17.4493 20.6128C17.4594 20.6091 17.4711 20.6053 17.4812 20.6028C18.3537 20.3696 19.6623 21.1852 20.4256 20.7435C20.5424 20.6765 20.6417 20.5827 20.7254 20.4721C21.1998 19.8491 21.2404 18.654 21.7743 18.121C22.4036 17.4917 23.9479 17.5478 24.3967 16.7728C24.8385 16.0089 24.0228 14.7008 24.2561 13.8279ZM15.0007 18.579C14.86 18.579 14.7206 18.5753 14.5824 18.5665C12.8426 18.4677 11.2682 17.7546 10.0732 16.6391C8.65455 15.3185 7.76896 13.4372 7.76896 11.3473C7.76896 7.35359 11.0069 4.11564 15.0007 4.11564C18.9948 4.11564 22.2324 7.35365 22.2324 11.3473C22.2324 15.3415 18.9948 18.579 15.0007 18.579Z" fill="black"/>
</g>
<defs>
<clipPath id="clip0_215_264">
<rect width="30" height="30" fill="white" transform="translate(0 0.5)"/>
</clipPath>
</defs>
</svg>
