<svg width="24" height="25" viewBox="0 0 24 25" fill="none" xmlns="http://www.w3.org/2000/svg">
<path d="M22 12.5C22 12.2348 21.8946 11.9804 21.7071 11.7929C21.5196 11.6054 21.2652 11.5 21 11.5C20.7348 11.5 20.4804 11.6054 20.2929 11.7929C20.1054 11.9804 20 12.2348 20 12.5H22ZM12 4.5C12.2652 4.5 12.5196 4.39464 12.7071 4.20711C12.8946 4.01957 13 3.76522 13 3.5C13 3.23478 12.8946 2.98043 12.7071 2.79289C12.5196 2.60536 12.2652 2.5 12 2.5V4.5ZM19.5 20.5H4.5V22.5H19.5V20.5ZM4 20V5H2V20H4ZM20 12.5V20H22V12.5H20ZM4.5 4.5H12V2.5H4.5V4.5ZM4.5 20.5C4.36739 20.5 4.24021 20.4473 4.14645 20.3536C4.05268 20.2598 4 20.1326 4 20H2C2 20.663 2.26339 21.2989 2.73223 21.7678C3.20107 22.2366 3.83696 22.5 4.5 22.5V20.5ZM19.5 22.5C20.163 22.5 20.7989 22.2366 21.2678 21.7678C21.7366 21.2989 22 20.663 22 20H20C20 20.1326 19.9473 20.2598 19.8536 20.3536C19.7598 20.4473 19.6326 20.5 19.5 20.5V22.5ZM4 5C4 4.86739 4.05268 4.74021 4.14645 4.64645C4.24021 4.55268 4.36739 4.5 4.5 4.5V2.5C3.83696 2.5 3.20107 2.76339 2.73223 3.23223C2.26339 3.70107 2 4.33696 2 5H4Z" fill="white"/>
<path d="M3 18L8.3465 13.099C8.52671 12.9338 8.76117 12.8404 9.00558 12.8364C9.24999 12.8323 9.48742 12.9179 9.673 13.077L16 18.5M14 16L16.3865 13.6135C16.5567 13.4432 16.7827 13.34 17.0229 13.3229C17.2631 13.3058 17.5014 13.376 17.694 13.5205L21 16M15 6.5H21M18 3.5V9.5" stroke="white" stroke-width="2" stroke-linecap="round" stroke-linejoin="round"/>
</svg>
