<svg width="29" height="25" viewBox="0 0 29 25" fill="none" xmlns="http://www.w3.org/2000/svg">
<path d="M22.1091 21.0072C23.112 21.0072 23.9216 20.1976 23.9216 19.1947C23.9216 18.1917 23.112 17.3822 22.1091 17.3822C21.1061 17.3822 20.2966 18.1917 20.2966 19.1947C20.2966 20.1976 21.1061 21.0072 22.1091 21.0072ZM23.9216 10.1322H20.9007V13.153H26.2899L23.9216 10.1322ZM7.60905 21.0072C8.61197 21.0072 9.42155 20.1976 9.42155 19.1947C9.42155 18.1917 8.61197 17.3822 7.60905 17.3822C6.60613 17.3822 5.79655 18.1917 5.79655 19.1947C5.79655 20.1976 6.60613 21.0072 7.60905 21.0072ZM24.5257 8.31966L28.1507 13.153V19.1947H25.7341C25.7341 21.2005 24.1149 22.8197 22.1091 22.8197C20.1032 22.8197 18.4841 21.2005 18.4841 19.1947H11.234C11.234 21.2005 9.61488 22.8197 7.60905 22.8197C5.60322 22.8197 3.98405 21.2005 3.98405 19.1947H1.56738V5.90299C1.56738 4.56174 2.6428 3.48633 3.98405 3.48633H20.9007V8.31966H24.5257ZM3.98405 5.90299V16.778H4.90238C5.56697 16.0409 6.53363 15.5697 7.60905 15.5697C8.68447 15.5697 9.65113 16.0409 10.3157 16.778H18.4841V5.90299H3.98405Z" fill="white"/>
</svg>
